# xmcd CD database file
# Copyright (C) 1993-1997  Ti Kan
#
# Track frame offsets:
#	150
#	13500
#	29457
#	41677
#	55747
#	73087
#	83132
#	99505
#	108342
#	125900
#	140605
#	151900
#	165467
#	176347
#	190670
#
# Disc length: 2692 seconds
#
# Revision: 1
# Processed by: cddbd v1.4b41PL1 Copyright (c) Steve Scherf et al.
# Submitted via: xmcd 2.2 PL0
#
DISCID=c20a820f
DTITLE=NIEMEN - dziwny jest ten ¶wiat
DYEAR=1900
DGENRE=
TTITLE0=GDZIE TO JEST
TTITLE1=NIGDY SIÊ NIE DOWIESZ
TTITLE2=TEN LOS Z£Y LOS
TTITLE3=CO¦ CO KOCHAM NAJWIÊCEJ
TTITLE4=WSPOMNIENIE
TTITLE5=NIE WSTAWAJ LEW¡ NOG¡
TTITLE6=DZIWNY JEST TEN ¦WIAT
TTITLE7=JESZCZE SWÓJ EGZAMIN ZDASZ
TTITLE8=CHCIA£BYM COFN¡Æ CZAS
TTITLE9=PAMIÊTAM TEN DZIEÑ
TTITLE10=NIE DLA MNIE TAKA DZIEWCZYNA
TTITLE11=CHYBA, ¯E MNIE POCA£UJESZ
TTITLE12=JAKI KOLOR WYBRAÆ CHCESZ
TTITLE13=PROSZÊ, PRZEBACZ
TTITLE14=DOMEK BEZ ADRESU
EXTD=TITLES BY R.R.G. KROTOSZYN '97
EXTT0=
EXTT1=
EXTT2=
EXTT3=
EXTT4=
EXTT5=
EXTT6=
EXTT7=
EXTT8=
EXTT9=
EXTT10=
EXTT11=
EXTT12=
EXTT13=
EXTT14=
PLAYORDER=
